<svg width="18" height="21" viewBox="0 0 18 21" fill="none" xmlns="http://www.w3.org/2000/svg">
<path d="M10 9L15.949 18.516C15.9787 18.5639 15.9951 18.6189 15.9965 18.6752C15.9979 18.7316 15.9842 18.7873 15.9569 18.8366C15.9296 18.8859 15.8896 18.927 15.8412 18.9557C15.7927 18.9845 15.7374 18.9997 15.681 19H2.31903C2.26237 18.9997 2.20683 18.9843 2.15818 18.9552C2.10952 18.9262 2.06954 18.8847 2.04238 18.835C2.01522 18.7852 2.00189 18.7292 2.00376 18.6725C2.00563 18.6159 2.02264 18.5608 2.05303 18.513L8.00003 9V2H10V9ZM4.00003 0V2H6.00003V8.46L0.359027 17.45C0.139081 17.8005 0.0169869 18.2036 0.00542214 18.6172C-0.00614262 19.0309 0.093244 19.4401 0.293261 19.8024C0.493279 20.1647 0.786633 20.4668 1.14286 20.6774C1.49909 20.888 1.9052 20.9994 2.31903 21H15.681C16.0949 20.9994 16.501 20.888 16.8572 20.6774C17.2134 20.4668 17.5068 20.1647 17.7068 19.8024C17.9068 19.4401 18.0062 19.0309 17.9946 18.6172C17.9831 18.2036 17.861 17.8005 17.641 17.45L12.001 8.46L12 2H14V0H4.00003Z" fill="white"/>
</svg>
