<svg width="20" height="20" viewBox="0 0 20 20" fill="none" xmlns="http://www.w3.org/2000/svg">
<path d="M18 0H2C1.46957 0 0.960859 0.210714 0.585786 0.585786C0.210714 0.960859 0 1.46957 0 2V14C0 14.5304 0.210714 15.0391 0.585786 15.4142C0.960859 15.7893 1.46957 16 2 16H8V18H5V20H15V18H12V16H18C18.5304 16 19.0391 15.7893 19.4142 15.4142C19.7893 15.0391 20 14.5304 20 14V2C20 1.46957 19.7893 0.960859 19.4142 0.585786C19.0391 0.210714 18.5304 0 18 0ZM18 14H2V2H18V14ZM14.75 11C14.75 11.4641 14.5656 11.9092 14.2374 12.2374C13.9092 12.5656 13.4641 12.75 13 12.75C12.5359 12.75 12.0908 12.5656 11.7626 12.2374C11.4344 11.9092 11.25 11.4641 11.25 11L8 9.36C7.74691 9.55483 7.44432 9.67489 7.1265 9.70657C6.80868 9.73825 6.48835 9.68028 6.20178 9.53924C5.91522 9.39821 5.67388 9.17973 5.50511 8.90857C5.33634 8.6374 5.24689 8.32439 5.24689 8.005C5.24689 7.68561 5.33634 7.3726 5.50511 7.10143C5.67388 6.83027 5.91522 6.61179 6.20178 6.47075C6.48835 6.32972 6.80868 6.27175 7.1265 6.30343C7.44432 6.33511 7.74691 6.45517 8 6.65L11.25 5C11.2444 4.59875 11.3753 4.20751 11.6213 3.89043C11.8672 3.57336 12.2136 3.34927 12.6037 3.25492C12.9937 3.16057 13.4042 3.20156 13.7679 3.37117C14.1316 3.54077 14.4269 3.82892 14.6053 4.18837C14.7837 4.54781 14.8347 4.95722 14.7498 5.34944C14.665 5.74166 14.4494 6.09342 14.1384 6.34702C13.8274 6.60063 13.4395 6.74103 13.0382 6.74521C12.637 6.74938 12.2462 6.61708 11.93 6.37L8.71 8L11.93 9.61C12.1881 9.40562 12.4989 9.27865 12.8263 9.24385C13.1536 9.20905 13.4842 9.26785 13.7795 9.4134C14.0748 9.55895 14.3227 9.7853 14.4945 10.0661C14.6663 10.347 14.7549 10.6708 14.75 11Z" fill="white"/>
</svg>
