<svg width="22" height="22" viewBox="0 0 22 22" fill="none" xmlns="http://www.w3.org/2000/svg">
<path d="M15.4444 7.66667C18.5127 7.66667 21 6.17428 21 4.33333C21 2.49238 18.5127 1 15.4444 1C12.3762 1 9.88889 2.49238 9.88889 4.33333C9.88889 6.17428 12.3762 7.66667 15.4444 7.66667Z" stroke="white" stroke-width="2" stroke-linecap="round" stroke-linejoin="round"/>
<path d="M9.88889 4.33337V8.77782C9.88889 10.6189 12.3767 12.1112 15.4444 12.1112C18.5122 12.1112 21 10.6189 21 8.77782V4.33337" stroke="white" stroke-width="2" stroke-linecap="round" stroke-linejoin="round"/>
<path d="M9.88889 8.77783V13.2223C9.88889 15.0634 12.3767 16.5556 15.4444 16.5556C18.5122 16.5556 21 15.0634 21 13.2223V8.77783" stroke="white" stroke-width="2" stroke-linecap="round" stroke-linejoin="round"/>
<path d="M9.88889 13.2222V17.6666C9.88889 19.5077 12.3767 20.9999 15.4444 20.9999C18.5122 20.9999 21 19.5077 21 17.6666V13.2222" stroke="white" stroke-width="2" stroke-linecap="round" stroke-linejoin="round"/>
<path d="M5.44444 7.66663H2.66667C2.22464 7.66663 1.80072 7.84222 1.48816 8.15478C1.17559 8.46734 1 8.89127 1 9.33329C1 9.77532 1.17559 10.1992 1.48816 10.5118C1.80072 10.8244 2.22464 11 2.66667 11H3.77778C4.21981 11 4.64373 11.1756 4.95629 11.4881C5.26885 11.8007 5.44444 12.2246 5.44444 12.6666C5.44444 13.1087 5.26885 13.5326 4.95629 13.8451C4.64373 14.1577 4.21981 14.3333 3.77778 14.3333H1" stroke="white" stroke-width="2" stroke-linecap="round" stroke-linejoin="round"/>
<path d="M3.22223 6.55554V7.66665M3.22223 14.3333V15.4444V14.3333Z" stroke="white" stroke-width="2" stroke-linecap="round" stroke-linejoin="round"/>
</svg>
