<svg width="22" height="26" viewBox="0 0 22 26" fill="none" xmlns="http://www.w3.org/2000/svg">
<path d="M6.67793 12.7544C9.81386 12.7544 12.3559 10.2124 12.3559 7.07649C12.3559 3.94057 9.81386 1.39856 6.67793 1.39856C3.54201 1.39856 1 3.94057 1 7.07649C1 10.2124 3.54201 12.7544 6.67793 12.7544Z" stroke="white" stroke-width="2" stroke-linejoin="round"/>
<path d="M12.3559 7.75903C12.3638 7.76698 15.0376 11.1295 20.3765 17.8453C20.467 17.9542 20.5135 18.0929 20.507 18.2343C20.5005 18.3756 20.4414 18.5095 20.3413 18.6096L18.0225 20.9284C17.9224 21.0285 17.7885 21.0876 17.6472 21.0941C17.5058 21.1006 17.3671 21.0541 17.2582 20.9636L7.71246 12.7545" stroke="white" stroke-width="2" stroke-linecap="round" stroke-linejoin="round"/>
<path d="M12.6227 13.0212L14.2285 14.6275" stroke="white" stroke-width="2" stroke-linecap="round" stroke-linejoin="round"/>
<path d="M7.24573 24.1592C8.33419 22.7408 9.65715 22.0316 11.2146 22.0316C13.5516 22.0316 16.3094 24.9671 18.6618 24.5634C21.0147 24.1592 21.6881 21.8392 20.2403 20.5548" stroke="white" stroke-width="2" stroke-linecap="round" stroke-linejoin="round"/>
</svg>
