<svg width="20" height="20" viewBox="0 0 20 20" fill="none" xmlns="http://www.w3.org/2000/svg">
<path d="M20 10C20 4.47733 15.5227 0 10 0C4.62033 0 0.234333 4.24867 0.0103333 9.57333C0.00766663 9.63867 0.00699999 9.705 0.00566665 9.77067C0.00399999 9.84733 0 9.92333 0 10V10.0337C0 15.538 4.47733 20 10 20C15.5227 20 20 15.538 20 10.0337L19.9993 10.0173L20 10ZM11.9967 19.117C11.8217 19.022 11.6537 18.8663 11.5853 18.6543C11.4617 18.2703 11.5573 17.9723 11.6993 17.6257C11.8127 17.348 11.6603 17.0273 11.7357 16.7367C11.8827 16.171 12.06 15.558 12.0053 14.9503C11.9713 14.5773 11.8887 14.5603 11.6127 14.345C11.3217 14.1167 11.3217 13.7937 11.127 13.505C10.9507 13.2427 11.4253 12.246 11.293 12.1853C11.1447 12.117 10.8073 12.2063 10.7007 12.0647C10.586 11.912 10.506 11.7317 10.3483 11.6133C10.2467 11.537 9.797 11.2817 9.677 11.2997C9.07267 11.39 8.418 10.8007 8.03233 10.4163C7.76667 10.1527 7.656 9.857 7.46133 9.552C7.29667 9.29367 7.04733 9.27133 6.925 8.951C6.79667 8.61633 6.873 8.18767 6.834 7.83567C6.79167 7.45733 6.60367 7.33667 6.36867 7.04733C5.866 6.42633 5.681 5.49967 4.72733 5.49967C4.215 5.49967 4.25133 6.61567 3.83867 6.466C3.372 6.297 2.65 7.09633 2.66033 6.98867C2.715 6.43067 3.288 6.15933 3.344 5.993C3.527 5.447 2.52633 5.57767 2.65467 5.12233C2.71733 4.89833 3.354 4.73533 3.22233 4.60167C3.18267 4.561 2.69567 4.21933 2.71967 4.20233C2.81 4.139 3.20267 4.33967 3.11733 4.079C3.08867 3.99233 3.04233 3.91267 2.99833 3.83233C3.20072 3.60251 3.41431 3.38279 3.63833 3.174C3.97633 3.14633 4.327 3.16733 4.454 3.192C5.25933 3.35067 5.53933 3.75833 6.34467 3.45667C6.732 3.312 8.15967 3.563 8.36433 3.969C8.47567 4.191 8.89033 3.83467 9.052 3.81067C9.22533 3.78467 9.617 4.05167 9.73633 3.888C10.0507 3.45767 9.535 3.279 10.144 3.61033C10.5523 3.83267 11.3503 2.855 11.0977 4.004C10.9153 4.83233 10.2453 4.85067 9.754 5.39033C9.27033 5.92167 10.711 6.06633 10.748 6.54633C10.8547 7.92833 11.5917 6.43367 11.3943 5.94233C11.0127 4.99067 11.8287 5.252 12.1573 5.85667C12.3397 6.19233 12.4783 5.90967 12.7017 5.79267C12.8827 5.69833 12.931 6.20933 12.97 6.29833C13.0983 6.594 13.52 6.68233 13.4487 7.063C13.3693 7.48267 13.071 7.35667 12.7793 7.42767C12.4537 7.50667 12.832 7.78067 12.7847 7.88067C12.7333 7.99 12.3407 8.03533 12.236 8.09733C11.928 8.27867 12.1163 8.63233 11.8753 8.82233C11.71 8.953 11.5433 8.868 11.5113 9.11267C11.4737 9.401 10.9423 9.49367 11.0113 9.76933C11.0303 9.845 11.1833 10.4103 11.087 10.4403C11.0427 10.4547 10.6923 9.94867 10.5967 9.898C10.4073 9.79767 9.54667 9.87967 9.436 10.4493C9.36433 10.8177 9.957 11.3993 10.108 10.892C10.295 10.2677 10.384 11.2557 10.339 11.2943C10.4283 11.3723 10.951 11.166 10.796 11.5277C10.7303 11.6807 10.8603 12.0797 11.0923 11.9567C11.1893 11.9053 11.4393 12.06 11.483 11.977C11.5458 11.8814 11.6306 11.8023 11.7303 11.7463C11.964 11.6097 12.3137 11.738 12.5697 11.753C12.726 11.762 14.0073 12.461 14.0143 12.6013C14.0423 13.1263 15.011 13.058 15.1597 13.2457C15.5593 13.7543 15.4363 13.496 15.1447 14.1477C14.9977 14.4757 15.1257 14.878 14.7697 15.1157C14.5983 15.2297 14.3893 15.1727 14.237 15.334C14.0997 15.4797 14.1537 15.6537 14.0703 15.822C13.97 16.0223 12.6217 17.234 12.5327 17.527C12.4883 17.674 12.086 17.802 12.4253 17.943C12.6227 18.001 11.9883 18.6007 12.2933 18.849C12.3677 18.9093 12.4163 18.9603 12.453 19.006C12.3007 19.0467 12.1497 19.0837 11.9967 19.117ZM11.198 0.745667C11.185 0.794 11.2047 0.851 11.2883 0.906667C11.477 1.03167 11.2343 1.30933 10.974 1.13033C10.7143 0.951333 10.1303 1.21067 10.1707 1.345C10.2103 1.47933 10.3907 1.53267 10.6693 1.42567C10.9473 1.31833 11.062 1.44167 11.1087 1.569C11.1407 1.65533 11.1087 1.70333 11.0997 1.81967C11.0913 1.936 10.7677 1.85533 10.4987 1.87367C10.229 1.89167 9.942 1.81967 9.95033 1.66733C9.95933 1.51533 9.66333 1.23767 9.48667 1.12167C9.31033 1.00567 9.564 0.755 9.798 0.942667C10.031 1.13067 10.0403 0.907 10.3097 0.835667C10.4627 0.795 10.4013 0.734 10.3493 0.676C10.636 0.686 10.9187 0.71 11.198 0.745667ZM12.3703 3.702C12.572 3.75667 12.9223 4.01167 12.9223 4.13233C12.9223 4.25333 12.7633 4.40467 12.693 4.38733C12.1853 4.26367 11.7573 3.76267 11.5217 3.48833C11.1103 3.01 11.1363 3.42 10.4847 3.213C10.318 3.15967 10.0537 2.64267 10.2287 2.38767C10.4037 2.13267 10.6057 2.09233 10.767 2.16C10.9283 2.22667 11.3997 1.945 11.508 2.28067C11.6153 2.61633 11.9117 3.04467 12.1813 3.15933C12.4513 3.27333 12.168 3.64733 12.3703 3.702ZM12.532 5.25967C12.6127 5.42067 12.047 5.07167 11.9123 4.91067C11.7783 4.75 11.5757 4.387 11.738 4.226C11.8993 4.06533 12.2613 4.561 12.4517 4.66933C12.828 4.88433 12.4513 5.099 12.532 5.25967ZM9.66733 2.82133C9.70633 2.76767 9.789 2.902 9.86267 3.03633C9.93633 3.17067 9.83467 3.36 9.66733 3.33133C9.5 3.30333 9.57367 2.95267 9.66733 2.82133ZM9.66733 1.47067C9.66733 1.47067 9.825 1.85533 9.66733 1.79267C9.50967 1.73 9.502 1.569 9.66733 1.47067ZM9.69933 2.68733C9.65433 2.58033 9.644 2.14067 9.75333 2.00733C9.91467 1.81067 10.1753 2.19533 10 2.34733C9.825 2.49967 9.744 2.795 9.69933 2.68733ZM7.67367 3.159C7.38067 3.138 7.37433 2.88467 7.33367 2.75033C7.293 2.616 7.05033 3.00533 6.805 2.75033C6.55967 2.49533 6.86233 2.16 6.80833 1.95833C6.75433 1.757 7.387 1.95833 7.48167 1.95833C7.57633 1.95833 7.832 2.37433 7.899 2.36733C7.96667 2.36067 8.33 2.69633 8.33 2.562C8.33 2.428 8.38533 2.19933 8.64 2.17267C9.03067 2.13233 8.68033 2.60233 8.66667 2.78533C8.65367 2.96833 8.96367 3.28667 9.07733 3.421C9.192 3.55533 8.78833 3.64967 8.72067 3.56867C8.65367 3.488 8.47833 3.56867 8.33 3.676C8.18233 3.78333 7.778 3.52833 7.58967 3.44767C7.401 3.36733 7.96667 3.17967 7.67367 3.159ZM8.72067 1.041C8.981 1.13067 9.129 1.211 9.257 1.041C9.38067 0.877 9.475 1.39867 9.38533 1.54167C9.29533 1.68533 9.125 1.64967 9.09767 1.54167C9.071 1.435 8.46033 0.951333 8.72067 1.041ZM9.09767 2.66067C9.00833 2.544 8.99933 2.41 9.09767 2.31167C9.19667 2.21333 9.16467 2.097 9.34067 2.06133C9.42733 2.04333 9.439 2.17733 9.439 2.30267C9.439 2.428 9.547 2.589 9.439 2.78533C9.33133 2.98167 9.18767 2.77667 9.09767 2.66067ZM9.83267 0.671C9.82867 0.695667 9.81233 0.710333 9.77133 0.706333C9.74314 0.701552 9.71631 0.690752 9.69267 0.674667C9.73967 0.673 9.78567 0.671667 9.83267 0.671ZM7.79633 1.05C8.00267 1.05 7.976 1.18933 8.14667 1.28967C8.31733 1.38967 8.22733 0.772333 8.344 1.005C8.46067 1.23733 8.807 1.55967 8.64033 1.622C8.497 1.67633 7.89567 1.90833 7.84167 1.86833C7.78767 1.82833 7.716 1.65833 7.572 1.622C7.428 1.58633 7.27567 1.24633 7.17667 1.25533C7.139 1.25867 7.13567 1.194 7.16033 1.108C7.33346 1.05226 7.5082 1.00169 7.68433 0.956333C7.70367 1.009 7.733 1.05 7.79633 1.05ZM12.3027 11.0583C12.0877 11.2803 11.7173 10.9037 11.4617 10.917C11.206 10.9303 11.0777 10.662 10.8557 10.689C10.633 10.7153 10.9163 10.4067 11.226 10.5683C11.535 10.7293 12.478 10.8767 12.3027 11.0583ZM16.6127 3.41367C16.55 3.49367 16.4787 3.54967 16.4103 3.60867C16.2087 3.78333 15.8317 3.77 15.7777 3.89067C15.7237 4.01133 15.589 4.387 15.1177 4.38867C14.6463 4.39 14.781 5.099 14.7407 5.30133C14.7003 5.50367 14.593 5.743 14.458 5.56833C14.3233 5.394 14.2693 5.46067 13.8527 4.95067C13.436 4.44067 13.596 4.159 13.731 4.01133C13.8657 3.864 13.9197 3.51467 13.731 3.56833C13.5423 3.622 13.4347 3.501 13.475 3.334C13.5153 3.167 13.7173 3.045 13.475 2.86667C13.2327 2.68867 13.367 2.05167 13.1787 1.47033C12.99 0.888667 12.734 1.30033 12.3167 1.32267C11.8993 1.345 11.8317 1.03167 12.0203 0.888333C13.7612 1.27331 15.3551 2.14978 16.6127 3.41367Z" fill="white"/>
</svg>
